<?xml version="1.0" encoding="UTF-8" standalone="no"?>
<!-- Created with Inkscape (http://www.inkscape.org/) -->

<svg
   xmlns:dc="http://purl.org/dc/elements/1.1/"
   xmlns:cc="http://creativecommons.org/ns#"
   xmlns:rdf="http://www.w3.org/1999/02/22-rdf-syntax-ns#"
   xmlns:svg="http://www.w3.org/2000/svg"
   xmlns="http://www.w3.org/2000/svg"
   xmlns:sodipodi="http://sodipodi.sourceforge.net/DTD/sodipodi-0.dtd"
   xmlns:inkscape="http://www.inkscape.org/namespaces/inkscape"
   width="744.09448819"
   height="1052.3622047"
   id="svg2"
   version="1.1"
   inkscape:version="0.48.0 r9654"
   sodipodi:docname="gg1.eps">
  <defs
     id="defs4">
    <marker
       inkscape:stockid="Arrow1Lstart"
       orient="auto"
       refY="0.0"
       refX="0.0"
       id="Arrow1Lstart"
       style="overflow:visible">
      <path
         id="path3758"
         d="M 0.0,0.0 L 5.0,-5.0 L -12.5,0.0 L 5.0,5.0 L 0.0,0.0 z "
         style="fill-rule:evenodd;stroke:#000000;stroke-width:1.0pt;marker-start:none"
         transform="scale(0.8) translate(12.5,0)" />
    </marker>
    <marker
       inkscape:stockid="Arrow1Lend"
       orient="auto"
       refY="0.0"
       refX="0.0"
       id="Arrow1Lend"
       style="overflow:visible;">
      <path
         id="path3761"
         d="M 0.0,0.0 L 5.0,-5.0 L -12.5,0.0 L 5.0,5.0 L 0.0,0.0 z "
         style="fill-rule:evenodd;stroke:#000000;stroke-width:1.0pt;marker-start:none;"
         transform="scale(0.8) rotate(180) translate(12.5,0)" />
    </marker>
    <marker
       inkscape:stockid="Arrow1Lstart"
       orient="auto"
       refY="0"
       refX="0"
       id="Arrow1Lstart-7"
       style="overflow:visible">
      <path
         inkscape:connector-curvature="0"
         id="path3758-9"
         d="M 0,0 5,-5 -12.5,0 5,5 0,0 z"
         style="fill-rule:evenodd;stroke:#000000;stroke-width:1pt;marker-start:none"
         transform="matrix(0.8,0,0,0.8,10,0)" />
    </marker>
    <marker
       inkscape:stockid="Arrow1Lend"
       orient="auto"
       refY="0"
       refX="0"
       id="Arrow1Lend-5"
       style="overflow:visible">
      <path
         inkscape:connector-curvature="0"
         id="path3761-6"
         d="M 0,0 5,-5 -12.5,0 5,5 0,0 z"
         style="fill-rule:evenodd;stroke:#000000;stroke-width:1pt;marker-start:none"
         transform="matrix(-0.8,0,0,-0.8,-10,0)" />
    </marker>
    <marker
       inkscape:stockid="Arrow1Lstart"
       orient="auto"
       refY="0"
       refX="0"
       id="Arrow1Lstart-5"
       style="overflow:visible">
      <path
         inkscape:connector-curvature="0"
         id="path3758-4"
         d="M 0,0 5,-5 -12.5,0 5,5 0,0 z"
         style="fill-rule:evenodd;stroke:#000000;stroke-width:1pt;marker-start:none"
         transform="matrix(0.8,0,0,0.8,10,0)" />
    </marker>
    <marker
       inkscape:stockid="Arrow1Lend"
       orient="auto"
       refY="0"
       refX="0"
       id="Arrow1Lend-7"
       style="overflow:visible">
      <path
         inkscape:connector-curvature="0"
         id="path3761-8"
         d="M 0,0 5,-5 -12.5,0 5,5 0,0 z"
         style="fill-rule:evenodd;stroke:#000000;stroke-width:1pt;marker-start:none"
         transform="matrix(-0.8,0,0,-0.8,-10,0)" />
    </marker>
  </defs>
  <sodipodi:namedview
     id="base"
     pagecolor="#ffffff"
     bordercolor="#666666"
     borderopacity="1.0"
     inkscape:pageopacity="0.0"
     inkscape:pageshadow="2"
     inkscape:zoom="1.6970563"
     inkscape:cx="355.60616"
     inkscape:cy="907.22108"
     inkscape:document-units="px"
     inkscape:current-layer="layer1"
     showgrid="false"
     inkscape:window-width="1680"
     inkscape:window-height="973"
     inkscape:window-x="0"
     inkscape:window-y="24"
     inkscape:window-maximized="1" />
  <metadata
     id="metadata7">
    <rdf:RDF>
      <cc:Work
         rdf:about="">
        <dc:format>image/svg+xml</dc:format>
        <dc:type
           rdf:resource="http://purl.org/dc/dcmitype/StillImage" />
        <dc:title></dc:title>
      </cc:Work>
    </rdf:RDF>
  </metadata>
  <g
     inkscape:label="Layer 1"
     inkscape:groupmode="layer"
     id="layer1">
    <path
       style="fill:none;stroke:#000000;stroke-width:1px;stroke-linecap:butt;stroke-linejoin:miter;stroke-opacity:1;marker-end:url(#Arrow1Lend);marker-start:url(#Arrow1Lstart)"
       d="m 140.30027,59.43596 c 0,164.86322 0,164.4469 0,164.4469 l 544.96454,0"
       id="path2985"
       inkscape:connector-curvature="0" />
    <text
       xml:space="preserve"
       style="font-size:40px;font-style:normal;font-weight:normal;line-height:121.00000381%;letter-spacing:0px;word-spacing:0px;fill:#000000;fill-opacity:1;stroke:none;font-family:Sans"
       x="666.5307"
       y="244.26015"
       id="text4385"
       sodipodi:linespacing="121%"><tspan
         sodipodi:role="line"
         id="tspan4387"
         x="666.5307"
         y="244.26015"
         style="font-size:12px;line-height:121.00000381%">time</tspan></text>
    <text
       xml:space="preserve"
       style="font-size:40px;font-style:normal;font-weight:normal;line-height:125%;letter-spacing:0px;word-spacing:0px;fill:#000000;fill-opacity:1;stroke:none;font-family:Sans"
       x="114.58333"
       y="73.195511"
       id="text4389"
       sodipodi:linespacing="125%"><tspan
         sodipodi:role="line"
         id="tspan4391"
         x="114.58333"
         y="73.195511"
         style="font-size:12px">r(t)</tspan></text>
    <path
       style="fill:none;stroke:#000000;stroke-width:1px;stroke-linecap:butt;stroke-linejoin:miter;stroke-opacity:1"
       d="m 171.58333,223.19552 c 0,-91.66667 0,-91.66667 0,-91.66667 l 91.25,91.25 c 0,-77.5 0,-77.08333 0,-77.08333 l 77.5,77.5 c 0,-147.083337 0,-147.083337 0,-147.083337 l 148.125,148.124997 c 0,-31.45833 0,-31.04166 0,-31.04166 l 30.9375,30.9375 c 0,-107.60417 0,-107.60417 0,-107.60417 L 626.73958,223.8726"
       id="path4393"
       inkscape:connector-curvature="0" />
    <path
       style="fill:#cccccc"
       d="m 172.41812,178.35993 0,-44.8951 44.79167,44.79021 c 24.63541,24.63462 44.79166,44.83742 44.79166,44.89511 0,0.0577 -20.15625,0.10489 -44.79166,0.10489 l -44.79167,0 0,-44.89511 z"
       id="path4395"
       inkscape:connector-curvature="0" />
    <path
       style="fill:#cccccc"
       d="m 263.66812,185.4434 0,-37.81163 37.70833,37.7066 c 20.73959,20.73864 37.70834,37.75387 37.70834,37.81164 0,0.0578 -16.96875,0.10503 -37.70834,0.10503 l -37.70833,0 0,-37.81164 z"
       id="path4397"
       inkscape:connector-curvature="0" />
    <path
       style="fill:#cccccc"
       d="m 341.16812,150.65132 0,-72.603716 72.5,72.499106 c 39.875,39.8745 72.5,72.54618 72.5,72.60371 0,0.0575 -32.625,0.10462 -72.5,0.10462 l -72.5,0 0,-72.60372 z"
       id="path4399"
       inkscape:connector-curvature="0" />
    <path
       style="fill:#cccccc"
       d="m 489.08479,208.9865 0,-14.26853 14.16666,14.16207 c 7.79167,7.78914 14.16667,14.20998 14.16667,14.26854 0,0.0585 -6.375,0.10646 -14.16667,0.10646 l -14.16666,0 0,-14.26854 z"
       id="path4401"
       inkscape:connector-curvature="0" />
    <path
       style="fill:#cccccc"
       d="m 519.91812,170.65149 0,-52.60354 52.5,52.49876 c 28.875,28.87431 52.5,52.54591 52.5,52.60354 0,0.0576 -23.625,0.10479 -52.5,0.10479 l -52.5,0 0,-52.60355 z"
       id="path4403"
       inkscape:connector-curvature="0" />
    <path
       style="fill:none;stroke:#000000;stroke-width:0.60000002;stroke-linecap:butt;stroke-linejoin:miter;stroke-miterlimit:4;stroke-opacity:1;stroke-dasharray:none;marker-start:url(#Arrow1Lstart);marker-end:url(#Arrow1Lend)"
       d="m 262,233.61218 c -90.41667,0 -90.41667,0 -90.41667,0"
       id="path4405"
       inkscape:connector-curvature="0" />
    <text
       xml:space="preserve"
       style="font-size:12px;font-style:normal;font-weight:normal;line-height:125%;letter-spacing:0px;word-spacing:0px;fill:#000000;fill-opacity:1;stroke:none;font-family:Sans"
       x="204.5"
       y="245.27885"
       id="text4775"
       sodipodi:linespacing="125%"><tspan
         sodipodi:role="line"
         id="tspan4777"
         x="204.5"
         y="245.27885">RTT<tspan
   style="font-size:6px"
   id="tspan4779">1</tspan></tspan></text>
    <path
       style="fill:none;stroke:#000000;stroke-width:0.60000002;stroke-linecap:butt;stroke-linejoin:miter;stroke-miterlimit:4;stroke-opacity:1;stroke-dasharray:none;marker-start:url(#Arrow1Lstart);marker-end:url(#Arrow1Lend)"
       d="m 164.392,130.33032 c 1.88267,90.39706 1.88267,90.39706 1.88267,90.39706"
       id="path4405-8"
       inkscape:connector-curvature="0" />
    <text
       xml:space="preserve"
       style="font-size:12px;font-style:normal;font-weight:normal;line-height:125%;letter-spacing:0px;word-spacing:0px;fill:#000000;fill-opacity:1;stroke:none;font-family:Sans"
       x="-192.77979"
       y="158.1768"
       id="text4775-4"
       sodipodi:linespacing="125%"
       transform="matrix(-0.00902137,-0.99995931,0.99995931,-0.00902137,0,0)"><tspan
         sodipodi:role="line"
         id="tspan4777-2"
         x="-192.77979"
         y="158.1768">RTT<tspan
   style="font-size:6px"
   id="tspan4779-5">1</tspan></tspan></text>
    <path
       style="fill:none;stroke:#000000;stroke-width:0.65243727;stroke-linecap:butt;stroke-linejoin:miter;stroke-miterlimit:4;stroke-opacity:1;stroke-dasharray:none;marker-start:url(#Arrow1Lstart);marker-end:url(#Arrow1Lend)"
       d="m 339.25833,233.82052 c -75.26733,0 -75.26733,0 -75.26733,0"
       id="path4405-6"
       inkscape:connector-curvature="0" />
    <text
       xml:space="preserve"
       style="font-size:12px;font-style:normal;font-weight:normal;line-height:125%;letter-spacing:0px;word-spacing:0px;fill:#000000;fill-opacity:1;stroke:none;font-family:Sans"
       x="289.7272"
       y="245.90288"
       id="text4775-5"
       sodipodi:linespacing="125%"><tspan
         sodipodi:role="line"
         id="tspan4777-8"
         x="289.7272"
         y="245.90288">RTT<tspan
   style="font-size:6px"
   id="tspan4908">2</tspan></tspan></text>
  </g>
</svg>
